<?xml version="1.0" encoding="UTF-8" standalone="no"?>
<!-- Created with Inkscape (http://www.inkscape.org/) -->

<svg
   xmlns:dc="http://purl.org/dc/elements/1.1/"
   xmlns:cc="http://creativecommons.org/ns#"
   xmlns:rdf="http://www.w3.org/1999/02/22-rdf-syntax-ns#"
   xmlns:svg="http://www.w3.org/2000/svg"
   xmlns="http://www.w3.org/2000/svg"
   xmlns:sodipodi="http://sodipodi.sourceforge.net/DTD/sodipodi-0.dtd"
   xmlns:inkscape="http://www.inkscape.org/namespaces/inkscape"
   id="svg3336"
   version="1.1"
   inkscape:version="0.91 r13725"
   xml:space="preserve"
   width="1000"
   height="1092.5"
   viewBox="0 0 1000 1092.5"
   sodipodi:docname="Final-Logo.svg"><metadata
     id="metadata3342"><rdf:RDF><cc:Work
         rdf:about=""><dc:format>image/svg+xml</dc:format><dc:type
           rdf:resource="http://purl.org/dc/dcmitype/StillImage" /><dc:title /></cc:Work></rdf:RDF></metadata><defs
     id="defs3340"><clipPath
       clipPathUnits="userSpaceOnUse"
       id="clipPath3350"><path
         d="M 0,874 800,874 800,0 0,0 0,874 Z"
         id="path3352"
         inkscape:connector-curvature="0" /></clipPath></defs><sodipodi:namedview
     pagecolor="#ffffff"
     bordercolor="#666666"
     borderopacity="1"
     objecttolerance="10"
     gridtolerance="10"
     guidetolerance="10"
     inkscape:pageopacity="0"
     inkscape:pageshadow="2"
     inkscape:window-width="1525"
     inkscape:window-height="879"
     id="namedview3338"
     showgrid="false"
     inkscape:zoom="0.7798627"
     inkscape:cx="424.34566"
     inkscape:cy="546.25"
     inkscape:window-x="148"
     inkscape:window-y="80"
     inkscape:window-maximized="0"
     inkscape:current-layer="g3354" /><g
     id="g3344"
     inkscape:groupmode="layer"
     inkscape:label="Final-Logo"
     transform="matrix(1.25,0,0,-1.25,0,1092.5)"><g
       id="g3346"><g
         id="g3348"
         clip-path="url(#clipPath3350)"><g
           id="g3354"
           transform="translate(19.1133,402.7773)"><path
             d="m 0,0 15.392,0 c 5.979,0 11.171,0.796 15.576,2.388 4.406,1.592 8.05,3.802 10.936,6.634 2.882,2.831 5.023,6.211 6.422,10.137 1.395,3.929 2.096,8.227 2.096,12.899 0,6.157 -0.869,11.338 -2.602,15.55 -1.732,4.21 -4.299,7.617 -7.695,10.217 -3.397,2.602 -7.616,4.477 -12.659,5.627 -5.042,1.149 -10.855,1.725 -17.435,1.725 L 0,65.177 0,0 Z m -6.795,71.227 15.87,0 c 4.847,0 9.412,-0.221 13.693,-0.663 4.281,-0.443 8.228,-1.213 11.837,-2.309 3.609,-1.098 6.847,-2.583 9.713,-4.458 2.866,-1.877 5.297,-4.246 7.297,-7.112 1.999,-2.867 3.53,-6.3 4.591,-10.297 1.063,-3.998 1.593,-8.653 1.593,-13.96 0,-5.837 -0.982,-11.129 -2.945,-15.869 C 52.889,11.818 50.04,7.776 46.308,4.431 42.575,1.087 38.019,-1.496 32.641,-3.317 27.262,-5.139 21.178,-6.05 14.383,-6.05 l -21.496,0 0.318,77.277 z"
             style="fill:#1e73be;fill-opacity:1;fill-rule:nonzero;stroke:none"
             id="path3356"
             inkscape:connector-curvature="0" /></g><g
           id="g3358"
           transform="translate(131.9517,451.1816)"><path
             d="m 0,0 6.582,0 0,-41.876 c 0,-0.566 0.016,-1.892 0.053,-3.98 0.035,-2.09 0.106,-4.956 0.213,-8.598 l -6.848,0 0,10.773 c -1.982,-4.174 -4.636,-7.217 -7.961,-9.129 -3.326,-1.911 -7.378,-2.867 -12.154,-2.867 -3.928,0 -7.158,0.673 -9.687,2.018 -2.53,1.344 -4.53,3.079 -5.997,5.201 -1.47,2.123 -2.488,4.503 -3.052,7.139 -0.566,2.635 -0.85,5.263 -0.85,7.881 l 0,33.438 6.582,0 0,-32.959 c 0.107,-2.868 0.389,-5.387 0.85,-7.564 0.458,-2.176 1.3,-3.999 2.52,-5.466 1.221,-1.469 2.804,-2.585 4.75,-3.345 1.946,-0.76 4.335,-1.14 7.165,-1.14 2.867,0 5.406,0.468 7.617,1.407 2.211,0.936 4.07,2.228 5.572,3.874 1.504,1.644 2.656,3.582 3.45,5.811 0.796,2.229 1.195,4.654 1.195,7.271 L 0,-31.475 0,0 Z"
             style="fill:#666666;fill-opacity:1;fill-rule:nonzero;stroke:none"
             id="path3360"
             inkscape:connector-curvature="0" /></g><g
           id="g3362"
           transform="translate(189.9111,444.1758)"><path
             d="m 0,0 c -1.558,0.956 -3.69,1.698 -6.396,2.23 -2.707,0.531 -5.67,0.796 -8.891,0.796 -1.876,0 -3.609,-0.204 -5.201,-0.611 -1.591,-0.407 -2.965,-0.99 -4.113,-1.752 -1.15,-0.762 -2.044,-1.681 -2.68,-2.76 -0.636,-1.08 -0.956,-2.308 -0.956,-3.688 0,-1.769 0.257,-3.169 0.769,-4.192 0.515,-1.027 1.265,-1.867 2.257,-2.521 0.99,-0.656 2.209,-1.187 3.661,-1.593 1.451,-0.406 3.115,-0.849 4.989,-1.328 1.877,-0.478 3.947,-1.079 6.211,-1.804 2.263,-0.725 4.706,-1.724 7.324,-2.998 0.956,-0.46 1.946,-1.019 2.972,-1.672 1.027,-0.656 1.964,-1.479 2.814,-2.469 0.848,-0.991 1.538,-2.167 2.07,-3.529 0.53,-1.362 0.794,-2.964 0.794,-4.804 0,-2.724 -0.627,-5.087 -1.883,-7.086 -1.256,-1.999 -2.911,-3.66 -4.963,-4.988 -2.052,-1.326 -4.397,-2.31 -7.032,-2.945 -2.637,-0.639 -5.334,-0.957 -8.093,-0.957 -1.878,0 -3.727,0.099 -5.548,0.293 -1.822,0.195 -3.548,0.513 -5.174,0.956 -1.629,0.441 -3.123,1.016 -4.485,1.724 -1.362,0.707 -2.504,1.574 -3.425,2.6 l 1.648,4.99 c 0.813,-0.921 1.839,-1.717 3.078,-2.388 1.238,-0.673 2.591,-1.232 4.059,-1.673 1.469,-0.442 3.027,-0.769 4.67,-0.981 1.647,-0.212 3.299,-0.32 4.963,-0.32 2.23,0 4.282,0.214 6.158,0.638 1.875,0.424 3.493,1.043 4.855,1.858 1.363,0.813 2.415,1.839 3.158,3.078 0.744,1.238 1.115,2.672 1.115,4.299 0,1.875 -0.425,3.431 -1.274,4.67 -0.848,1.239 -2.035,2.283 -3.556,3.132 -1.521,0.85 -3.309,1.585 -5.358,2.203 -2.054,0.619 -4.301,1.265 -6.742,1.938 -2.583,0.778 -4.911,1.592 -6.98,2.44 -2.071,0.85 -3.841,1.858 -5.307,3.027 -1.469,1.166 -2.6,2.555 -3.398,4.167 -0.794,1.609 -1.193,3.581 -1.193,5.916 0,2.442 0.557,4.564 1.671,6.37 1.114,1.804 2.593,3.307 4.433,4.511 1.839,1.202 3.917,2.097 6.236,2.681 2.317,0.584 4.697,0.875 7.137,0.875 3.54,0 6.803,-0.318 9.794,-0.956 2.99,-0.636 5.438,-1.697 7.35,-3.184 L 0,0 Z"
             style="fill:#666666;fill-opacity:1;fill-rule:nonzero;stroke:none"
             id="path3364"
             inkscape:connector-curvature="0" /></g><g
           id="g3366"
           transform="translate(215.2808,446.8296)"><path
             d="m 0,0 -10.987,0 0,4.352 10.987,0 0.052,15.286 6.53,1.805 0,-17.091 14.012,0 0,-4.352 -14.012,0 0,-34.021 c 0,-2.088 0.053,-3.911 0.159,-5.466 0.105,-1.558 0.39,-2.842 0.848,-3.848 0.461,-1.01 1.266,-1.761 2.415,-2.257 1.151,-0.496 2.788,-0.743 4.913,-0.743 2.544,0 4.491,0.337 5.836,1.009 l 0,-4.511 c -0.78,-0.531 -1.69,-0.911 -2.734,-1.142 -1.045,-0.23 -2.237,-0.346 -3.581,-0.346 -2.938,0 -5.353,0.32 -7.244,0.957 -1.895,0.637 -3.374,1.601 -4.434,2.891 -1.062,1.293 -1.787,2.91 -2.176,4.858 C 0.195,-40.673 0,-38.391 0,-35.772 L 0,0 Z"
             style="fill:#666666;fill-opacity:1;fill-rule:nonzero;stroke:none"
             id="path3368"
             inkscape:connector-curvature="0" /></g><path
           d="m 256.308,468.591 -6.103,0 0,6.582 6.103,0 0,-6.582 z m -6.476,-17.409 6.581,0 0,-54.456 -6.581,0 0,54.456 z"
           style="fill:#666666;fill-opacity:1;fill-rule:nonzero;stroke:none"
           id="path3370"
           inkscape:connector-curvature="0" /><g
           id="g3372"
           transform="translate(282.7939,396.7261)"><path
             d="m 0,0 -6.583,0 0,41.823 -0.478,12.633 6.902,0 0.317,-10.668 c 4.281,7.995 11.006,11.995 20.17,11.995 2.652,0 4.979,-0.318 6.979,-0.956 1.998,-0.638 3.713,-1.513 5.149,-2.628 1.433,-1.113 2.607,-2.415 3.529,-3.899 0.92,-1.487 1.627,-3.088 2.122,-4.804 0.497,-1.717 0.849,-3.503 1.065,-5.36 0.209,-1.858 0.313,-3.707 0.313,-5.548 0.04,-0.955 0.056,-2.732 0.056,-5.333 l 0,-9.581 0,-17.674 -6.58,0 0,28.768 c 0,1.911 -0.01,3.414 -0.027,4.511 -0.018,1.096 -0.045,1.804 -0.08,2.122 -0.177,4.991 -1.515,8.749 -4.009,11.28 -2.493,2.529 -5.918,3.795 -10.27,3.795 -1.982,0 -3.813,-0.259 -5.491,-0.771 C 11.401,49.193 9.879,48.512 8.518,47.662 7.155,46.813 5.961,45.848 4.935,44.769 3.908,43.689 3.006,42.576 2.229,41.425 1.451,40.276 0.884,39.152 0.53,38.056 0.176,36.959 0,35.967 0,35.083 L 0,0 Z"
             style="fill:#666666;fill-opacity:1;fill-rule:nonzero;stroke:none"
             id="path3374"
             inkscape:connector-curvature="0" /></g><g
           id="g3376"
           transform="translate(359.0098,396.7261)"><path
             d="m 0,0 0,71.229 -25.317,0 0,6.048 57.748,0 0,-6.048 -25.264,0 L 7.167,0 0,0 Z"
             style="fill:#8cc63f;fill-opacity:1;fill-rule:nonzero;stroke:none"
             id="path3378"
             inkscape:connector-curvature="0" /></g><g
           id="g3380"
           transform="translate(435.9687,423.8477)"><path
             d="m 0,0 c 0,3.149 -0.417,6.139 -1.247,8.971 -0.833,2.83 -2.097,5.307 -3.795,7.43 -1.699,2.122 -3.849,3.811 -6.448,5.068 -2.6,1.256 -5.69,1.885 -9.262,1.885 -3.397,0 -6.368,-0.646 -8.917,-1.937 -2.548,-1.292 -4.69,-3.026 -6.423,-5.202 -1.734,-2.175 -3.034,-4.67 -3.901,-7.483 -0.866,-2.814 -1.299,-5.742 -1.299,-8.784 0,-3.044 0.433,-5.964 1.299,-8.759 0.867,-2.795 2.176,-5.253 3.928,-7.376 1.752,-2.124 3.927,-3.813 6.527,-5.07 2.603,-1.255 5.636,-1.883 9.102,-1.883 3.399,0 6.379,0.636 8.946,1.91 2.564,1.274 4.695,2.972 6.396,5.096 1.697,2.123 2.97,4.582 3.821,7.377 C -0.424,-5.962 0,-3.042 0,0 m -20.382,28.662 c 4.528,0 8.493,-0.736 11.889,-2.204 3.399,-1.468 6.236,-3.486 8.518,-6.051 2.284,-2.564 4,-5.58 5.15,-9.05 C 6.324,7.891 6.899,4.174 6.899,0.214 6.899,-3.68 6.29,-7.35 5.068,-10.801 c -1.219,-3.449 -3,-6.474 -5.333,-9.074 -2.337,-2.602 -5.228,-4.665 -8.677,-6.185 -3.451,-1.521 -7.406,-2.283 -11.864,-2.283 -4.423,0 -8.333,0.725 -11.729,2.176 -3.399,1.451 -6.255,3.453 -8.572,5.999 -2.318,2.547 -4.071,5.538 -5.254,8.969 -1.186,3.431 -1.78,7.13 -1.78,11.092 0,3.964 0.612,7.697 1.832,11.2 1.222,3.502 3.007,6.556 5.36,9.156 2.354,2.6 5.254,4.651 8.705,6.157 3.45,1.503 7.404,2.256 11.862,2.256"
             style="fill:#666666;fill-opacity:1;fill-rule:nonzero;stroke:none"
             id="path3382"
             inkscape:connector-curvature="0" /></g><g
           id="g3384"
           transform="translate(496.793,451.1816)"><path
             d="m 0,0 6.583,0 0,-41.876 c 0,-0.566 0.017,-1.892 0.053,-3.98 0.033,-2.09 0.105,-4.956 0.212,-8.598 l -6.848,0 0,10.773 c -1.98,-4.174 -4.636,-7.217 -7.961,-9.129 -3.327,-1.911 -7.377,-2.867 -12.154,-2.867 -3.928,0 -7.157,0.673 -9.687,2.018 -2.531,1.344 -4.528,3.079 -5.999,5.201 -1.468,2.123 -2.484,4.503 -3.05,7.139 -0.566,2.635 -0.848,5.263 -0.848,7.881 l 0,33.438 6.58,0 0,-32.959 c 0.106,-2.868 0.39,-5.387 0.848,-7.564 0.461,-2.176 1.301,-3.999 2.523,-5.466 1.22,-1.469 2.804,-2.585 4.749,-3.345 1.948,-0.76 4.335,-1.14 7.167,-1.14 2.867,0 5.403,0.468 7.617,1.407 2.209,0.936 4.068,2.228 5.572,3.874 1.503,1.644 2.654,3.582 3.45,5.811 0.795,2.229 1.193,4.654 1.193,7.271 L 0,-31.475 0,0 Z"
             style="fill:#666666;fill-opacity:1;fill-rule:nonzero;stroke:none"
             id="path3386"
             inkscape:connector-curvature="0" /></g><g
           id="g3388"
           transform="translate(560.2178,441.7344)"><path
             d="m 0,0 c -1.484,1.804 -3.485,3.167 -5.996,4.086 -2.514,0.92 -5.327,1.381 -8.44,1.381 -3.255,0 -6.157,-0.619 -8.703,-1.858 -2.548,-1.238 -4.716,-2.918 -6.504,-5.041 -1.788,-2.123 -3.149,-4.61 -4.086,-7.458 -0.937,-2.848 -1.406,-5.883 -1.406,-9.103 0,-3.219 0.399,-6.236 1.195,-9.048 0.794,-2.813 2.031,-5.255 3.713,-7.325 1.68,-2.072 3.824,-3.699 6.422,-4.882 2.602,-1.188 5.706,-1.78 9.315,-1.78 6.581,0 11.924,1.77 16.03,5.307 l 1.592,-5.147 c -2.334,-1.912 -5.062,-3.282 -8.174,-4.113 -3.114,-0.832 -6.547,-1.248 -10.297,-1.248 -4.424,0 -8.298,0.726 -11.623,2.175 -3.326,1.451 -6.104,3.433 -8.333,5.946 -2.229,2.51 -3.899,5.457 -5.017,8.836 -1.113,3.379 -1.67,6.981 -1.67,10.802 0,3.998 0.6,7.766 1.803,11.306 1.203,3.536 2.948,6.634 5.229,9.288 2.282,2.653 5.096,4.758 8.439,6.315 3.342,1.557 7.174,2.336 11.49,2.336 4.14,0 7.705,-0.594 10.696,-1.777 C -1.336,7.812 1.043,6.156 2.813,4.034 L 0,0 Z"
             style="fill:#666666;fill-opacity:1;fill-rule:nonzero;stroke:none"
             id="path3390"
             inkscape:connector-curvature="0" /></g><g
           id="g3392"
           transform="translate(584.4229,476.7646)"><path
             d="m 0,0 0,-36.25 c 2.333,4.173 5.138,7.218 8.41,9.128 3.274,1.911 7.228,2.867 11.864,2.867 3.538,0 6.491,-0.557 8.864,-1.673 2.369,-1.113 4.281,-2.592 5.731,-4.431 1.452,-1.841 2.521,-3.928 3.212,-6.264 0.689,-2.335 1.121,-4.723 1.298,-7.165 l 0.107,-2.336 0,-33.915 -6.581,0 0,28.13 c 0,1.309 -0.016,2.752 -0.052,4.326 -0.036,1.574 -0.054,2.38 -0.054,2.416 -0.247,5.023 -1.602,8.88 -4.059,11.57 -2.462,2.689 -6.132,4.034 -11.015,4.034 -2.937,0 -5.51,-0.497 -7.722,-1.486 C 7.793,-32.04 5.942,-33.403 4.456,-35.135 2.972,-36.87 1.847,-38.913 1.087,-41.267 0.325,-43.621 -0.037,-46.142 0,-48.831 l 0,-31.208 -6.585,0 L -6.585,0 0,0 Z"
             style="fill:#666666;fill-opacity:1;fill-rule:nonzero;stroke:none"
             id="path3394"
             inkscape:connector-curvature="0" /></g><g
           id="g3396"
           transform="translate(646.7852,446.8296)"><path
             d="m 0,0 -10.988,0 0,4.352 10.988,0 0.053,15.286 6.527,1.805 0,-17.091 14.014,0 0,-4.352 -14.014,0 0,-34.021 c 0,-2.088 0.055,-3.911 0.161,-5.466 0.107,-1.558 0.386,-2.842 0.849,-3.848 0.459,-1.01 1.264,-1.761 2.414,-2.257 1.148,-0.496 2.787,-0.743 4.911,-0.743 2.548,0 4.491,0.337 5.837,1.009 l 0,-4.511 c -0.778,-0.531 -1.69,-0.911 -2.734,-1.142 -1.041,-0.23 -2.237,-0.346 -3.582,-0.346 -2.936,0 -5.352,0.32 -7.245,0.957 -1.893,0.637 -3.369,1.601 -4.431,2.891 -1.063,1.293 -1.788,2.91 -2.176,4.858 C 0.193,-40.673 0,-38.391 0,-35.772 L 0,0 Z"
             style="fill:#666666;fill-opacity:1;fill-rule:nonzero;stroke:none"
             id="path3398"
             inkscape:connector-curvature="0" /></g><g
           id="g3400"
           transform="translate(724.2227,423.8477)"><path
             d="m 0,0 c 0,3.149 -0.418,6.139 -1.246,8.971 -0.834,2.83 -2.098,5.307 -3.796,7.43 -1.698,2.122 -3.849,3.811 -6.448,5.068 -2.601,1.256 -5.689,1.885 -9.263,1.885 -3.397,0 -6.367,-0.646 -8.917,-1.937 -2.548,-1.292 -4.687,-3.026 -6.423,-5.202 -1.733,-2.175 -3.032,-4.67 -3.899,-7.483 -0.868,-2.814 -1.301,-5.742 -1.301,-8.784 0,-3.044 0.433,-5.964 1.301,-8.759 0.867,-2.795 2.175,-5.253 3.927,-7.376 1.752,-2.124 3.928,-3.813 6.528,-5.07 2.601,-1.255 5.635,-1.883 9.102,-1.883 3.398,0 6.378,0.636 8.945,1.91 2.564,1.274 4.696,2.972 6.395,5.096 1.698,2.123 2.972,4.582 3.821,7.377 C -0.425,-5.962 0,-3.042 0,0 m -20.381,28.662 c 4.528,0 8.491,-0.736 11.889,-2.204 3.397,-1.468 6.235,-3.486 8.518,-6.051 2.284,-2.564 3.998,-5.58 5.148,-9.05 C 6.324,7.891 6.9,4.174 6.9,0.214 6.9,-3.68 6.291,-7.35 5.068,-10.801 c -1.22,-3.449 -2.999,-6.474 -5.333,-9.074 -2.337,-2.602 -5.228,-4.665 -8.678,-6.185 -3.45,-1.521 -7.406,-2.283 -11.864,-2.283 -4.422,0 -8.333,0.725 -11.728,2.176 -3.398,1.451 -6.255,3.453 -8.572,5.999 -2.317,2.547 -4.071,5.538 -5.254,8.969 -1.187,3.431 -1.781,7.13 -1.781,11.092 0,3.964 0.613,7.697 1.834,11.2 1.22,3.502 3.006,6.556 5.359,9.156 2.355,2.6 5.255,4.651 8.705,6.157 3.449,1.503 7.405,2.256 11.863,2.256"
             style="fill:#666666;fill-opacity:1;fill-rule:nonzero;stroke:none"
             id="path3402"
             inkscape:connector-curvature="0" /></g><g
           id="g3404"
           transform="translate(752.458,396.7261)"><path
             d="m 0,0 -6.58,0 0,41.823 -0.48,12.633 6.902,0 0.317,-10.668 c 4.281,7.995 11.006,11.995 20.17,11.995 2.654,0 4.979,-0.318 6.981,-0.956 1.998,-0.638 3.713,-1.513 5.147,-2.628 1.433,-1.113 2.607,-2.415 3.53,-3.899 0.919,-1.487 1.626,-3.088 2.122,-4.804 0.495,-1.717 0.849,-3.503 1.063,-5.36 0.212,-1.858 0.316,-3.707 0.316,-5.548 0.037,-0.955 0.054,-2.732 0.054,-5.333 l 0,-9.581 0,-17.674 -6.581,0 0,28.768 c 0,1.911 -0.011,3.414 -0.027,4.511 -0.017,1.096 -0.044,1.804 -0.08,2.122 -0.176,4.991 -1.511,8.749 -4.006,11.28 -2.495,2.529 -5.918,3.795 -10.272,3.795 -1.98,0 -3.811,-0.259 -5.493,-0.771 C 11.402,49.193 9.881,48.512 8.519,47.662 7.158,46.813 5.962,45.848 4.937,44.769 3.911,43.689 3.009,42.576 2.231,41.425 1.45,40.276 0.885,39.152 0.531,38.056 0.177,36.959 0,35.967 0,35.083 L 0,0 Z"
             style="fill:#666666;fill-opacity:1;fill-rule:nonzero;stroke:none"
             id="path3406"
             inkscape:connector-curvature="0" /></g></g></g></g></svg>